<svg width="25" height="20" viewBox="0 0 25 20" fill="none" xmlns="http://www.w3.org/2000/svg">
<path d="M20.625 17.5H4.375C4.03125 17.5 3.75 17.7812 3.75 18.125V19.375C3.75 19.7188 4.03125 20 4.375 20H20.625C20.9688 20 21.25 19.7188 21.25 19.375V18.125C21.25 17.7812 20.9688 17.5 20.625 17.5ZM23.125 5C22.0898 5 21.25 5.83984 21.25 6.875C21.25 7.15234 21.3125 7.41016 21.4219 7.64844L18.5938 9.34375C17.9922 9.70312 17.2148 9.5 16.8672 8.89063L13.6836 3.32031C14.1016 2.97656 14.375 2.46094 14.375 1.875C14.375 0.839844 13.5352 0 12.5 0C11.4648 0 10.625 0.839844 10.625 1.875C10.625 2.46094 10.8984 2.97656 11.3164 3.32031L8.13281 8.89063C7.78516 9.5 7.00391 9.70312 6.40625 9.34375L3.58203 7.64844C3.6875 7.41406 3.75391 7.15234 3.75391 6.875C3.75391 5.83984 2.91406 5 1.87891 5C0.84375 5 0 5.83984 0 6.875C0 7.91016 0.839844 8.75 1.875 8.75C1.97656 8.75 2.07813 8.73437 2.17578 8.71875L5 16.25H20L22.8242 8.71875C22.9219 8.73437 23.0234 8.75 23.125 8.75C24.1602 8.75 25 7.91016 25 6.875C25 5.83984 24.1602 5 23.125 5Z" fill="#080019"/>
</svg>
