<svg width="16" height="16" viewBox="0 0 16 16" fill="none" xmlns="http://www.w3.org/2000/svg">
<path d="M15.7824 13.833L12.6671 10.7177C12.5265 10.5771 12.3359 10.499 12.1359 10.499H11.6266C12.489 9.39596 13.0015 8.00859 13.0015 6.49937C13.0015 2.90909 10.0924 0 6.5021 0C2.91182 0 0.00273132 2.90909 0.00273132 6.49937C0.00273132 10.0896 2.91182 12.9987 6.5021 12.9987C8.01132 12.9987 9.39869 12.4863 10.5017 11.6239V12.1332C10.5017 12.3332 10.5798 12.5238 10.7204 12.6644L13.8358 15.7797C14.1295 16.0734 14.6044 16.0734 14.895 15.7797L15.7793 14.8954C16.073 14.6017 16.073 14.1267 15.7824 13.833ZM6.5021 10.499C4.29294 10.499 2.50249 8.71165 2.50249 6.49937C2.50249 4.29021 4.28981 2.49976 6.5021 2.49976C8.71126 2.49976 10.5017 4.28708 10.5017 6.49937C10.5017 8.70852 8.71438 10.499 6.5021 10.499Z" fill="#F8F5FF" fill-opacity="0.7"/>
</svg>
